<?xml version="1.0" standalone="no"?>
<!DOCTYPE svg PUBLIC "-//W3C//DTD SVG 20010904//EN"
 "http://www.w3.org/TR/2001/REC-SVG-20010904/DTD/svg10.dtd">
<svg version="1.0" xmlns="http://www.w3.org/2000/svg"
 width="1024.000000pt" height="1024.000000pt" viewBox="0 0 1024.000000 1024.000000"
 preserveAspectRatio="xMidYMid meet">

<g transform="translate(0.000000,1024.000000) scale(0.100000,-0.100000)"
fill="#000000" stroke="none">
<path d="M0 5120 l0 -5120 5120 0 5120 0 0 5120 0 5120 -5120 0 -5120 0 0
-5120z m5435 3335 c253 -33 482 -103 720 -220 253 -124 443 -262 638 -464 341
-353 543 -771 619 -1276 20 -135 17 -549 -5 -690 -78 -499 -306 -946 -661
-1300 -325 -324 -741 -548 -1176 -634 -177 -34 -268 -43 -445 -43 -876 -1
-1678 499 -2066 1287 -109 221 -174 425 -216 671 -25 153 -25 592 0 739 45
257 106 444 222 680 223 456 571 801 1040 1031 280 137 542 208 885 238 82 7
323 -3 445 -19z m-2288 -5044 c50 -23 73 -62 73 -125 0 -120 -166 -178 -244
-86 -77 92 -14 225 109 229 11 0 39 -8 62 -18z m1868 -36 c32 -8 84 -28 115
-44 l55 -28 3 -122 3 -122 -61 42 c-95 64 -186 93 -300 93 -153 1 -215 -44
-207 -152 7 -98 54 -133 242 -182 288 -74 386 -167 387 -365 0 -107 -26 -177
-97 -253 -62 -68 -135 -107 -238 -129 -158 -33 -425 11 -509 85 -15 13 -18 33
-18 129 l0 114 33 -24 c92 -70 219 -110 352 -111 106 -1 171 19 210 65 21 26
25 41 25 94 0 109 -40 139 -260 200 -161 44 -236 82 -295 147 -57 64 -80 131
-78 229 2 168 109 292 296 344 66 19 257 14 342 -10z m-2278 -320 c-63 -171
-165 -451 -227 -623 l-114 -312 -159 2 -160 3 -39 100 c-21 55 -125 327 -229
605 -105 278 -195 513 -201 523 -8 16 0 17 138 15 l146 -3 72 -205 c40 -113
117 -333 171 -489 96 -277 99 -283 111 -250 37 108 324 917 329 931 6 15 25
18 138 20 73 2 133 1 135 -2 1 -3 -49 -145 -111 -315z m2948 97 l0 -112 113 0
112 0 0 -90 0 -90 -114 0 -115 0 0 -227 c0 -250 8 -299 49 -320 30 -15 118
-17 154 -3 l26 10 0 -95 0 -94 -42 -12 c-59 -17 -173 -17 -230 0 -57 16 -122
69 -148 121 -31 60 -40 150 -40 393 l0 227 -70 0 -70 0 0 90 0 90 69 0 68 0 7
46 c3 26 6 78 6 116 l0 69 113 -3 112 -3 0 -113z m-1653 -126 c120 -57 202
-161 238 -300 61 -239 -31 -480 -218 -575 -151 -76 -341 -59 -425 39 l-32 38
3 -229 3 -229 -116 0 -115 0 0 635 0 635 115 0 115 0 0 -48 0 -49 45 43 c60
58 115 75 235 71 79 -3 104 -8 152 -31z m2563 20 c226 -60 371 -269 352 -509
-18 -235 -203 -415 -446 -434 -222 -17 -427 120 -492 328 -26 84 -26 225 1
311 44 144 183 271 337 307 58 14 192 12 248 -3z m1003 8 c21 -6 22 -11 22
-113 l0 -106 -79 0 c-69 0 -84 -4 -127 -30 -27 -17 -62 -50 -79 -74 l-30 -43
-5 -281 -5 -282 -115 0 -115 0 -3 458 -2 457 115 0 115 0 0 -92 0 -91 31 62
c33 65 73 101 146 127 41 14 94 17 131 8z m683 -26 c152 -70 229 -208 229
-409 l0 -99 -321 0 -321 0 7 -37 c15 -81 55 -133 135 -174 39 -20 59 -24 150
-24 111 0 174 15 258 60 l42 24 0 -94 c0 -87 -2 -94 -24 -108 -52 -35 -151
-60 -251 -65 -231 -11 -406 80 -493 257 l-37 75 0 145 c0 144 0 147 32 212 57
116 157 210 266 250 81 29 252 23 328 -13z m-5091 -447 l0 -459 -115 -1 -115
-2 0 461 0 460 115 0 115 0 0 -459z"/>
<path d="M4900 8236 c-360 -47 -670 -163 -957 -355 -518 -348 -848 -935 -894
-1592 -35 -504 116 -1013 419 -1405 l76 -99 42 255 c24 140 97 588 163 995 67
407 126 757 131 777 22 79 89 104 256 96 65 -4 94 -2 95 6 0 6 4 101 8 211 7
164 12 211 29 259 64 179 240 340 410 375 74 15 195 13 271 -4 211 -50 381
-236 410 -448 6 -43 11 -155 11 -249 l0 -171 153 7 c94 4 165 3 186 -4 48 -14
98 -65 115 -119 8 -25 63 -300 121 -611 58 -311 137 -728 175 -927 39 -198 70
-388 70 -421 0 -53 -5 -66 -39 -118 -45 -68 -82 -98 -137 -112 -25 -7 -453
-12 -1152 -14 -744 -2 -1108 -6 -1099 -13 7 -5 40 -31 72 -56 490 -378 1100
-525 1690 -408 408 81 731 252 1032 542 151 147 213 220 307 362 298 449 410
1033 301 1573 -67 333 -219 660 -422 912 -76 94 -266 279 -358 347 -208 156
-516 299 -780 364 -206 50 -512 70 -705 45z m1089 -526 c19 -74 60 -150 93
-172 13 -8 51 -25 86 -38 34 -12 62 -26 62 -31 0 -4 -21 -15 -47 -23 -105 -35
-153 -89 -194 -214 -13 -40 -28 -71 -34 -69 -5 2 -22 41 -37 86 -36 110 -66
142 -177 187 -31 13 -56 28 -56 35 0 6 26 21 59 33 32 12 76 37 98 56 41 34
93 127 104 188 9 48 24 35 43 -38z m470 -602 c25 -75 58 -112 131 -142 25 -10
59 -24 75 -31 l30 -12 -58 -19 c-82 -26 -129 -69 -157 -146 -24 -64 -37 -88
-49 -88 -4 0 -17 31 -29 69 -12 38 -32 81 -43 95 -20 25 -87 66 -108 66 -5 0
-22 5 -38 11 -28 10 -27 11 47 45 112 52 124 68 155 208 8 38 18 26 44 -56z"/>
<path d="M4662 7559 c-73 -28 -159 -114 -201 -201 -32 -65 -33 -70 -42 -260
-5 -106 -12 -239 -15 -295 l-6 -103 -28 0 c-89 0 -138 -87 -95 -169 31 -60
143 -81 206 -38 54 36 59 54 59 240 l0 167 265 0 265 0 0 -152 c0 -84 5 -169
10 -189 15 -55 50 -82 116 -87 90 -7 134 31 134 117 0 54 -32 90 -86 98 l-40
5 -11 302 c-9 265 -13 307 -31 355 -44 113 -112 178 -224 213 -82 25 -206 24
-276 -3z"/>
<path d="M5707 6700 c-3 -8 -13 -76 -22 -150 -28 -229 -163 -1242 -200 -1495
-39 -266 -57 -320 -133 -403 -21 -23 -37 -44 -34 -46 7 -7 93 4 151 20 57 16
67 22 171 91 98 65 162 83 292 83 103 0 108 1 108 21 0 11 -24 52 -54 90 -62
78 -55 50 -96 399 -16 140 -52 442 -80 670 -28 228 -57 474 -66 545 -17 146
-28 198 -37 175z"/>
<path d="M3740 2857 c-19 -6 -59 -35 -87 -63 l-53 -53 0 -167 c0 -164 0 -168
26 -201 72 -94 249 -110 340 -31 60 53 77 99 82 218 3 89 1 114 -18 162 -45
119 -163 175 -290 135z"/>
<path d="M6400 2861 c-76 -23 -128 -71 -163 -151 -25 -56 -26 -184 -3 -249 35
-95 112 -158 208 -168 108 -11 198 39 245 135 24 50 28 68 28 147 -1 139 -46
222 -150 271 -51 24 -115 30 -165 15z"/>
<path d="M7998 2852 c-55 -32 -83 -65 -103 -123 -26 -73 -38 -69 195 -69 l210
0 0 28 c0 76 -46 153 -107 178 -56 24 -141 18 -195 -14z"/>
</g>
</svg>
